<?xml version="1.0" encoding="utf-8"?>
<!-- Generator: Adobe Illustrator 19.1.0, SVG Export Plug-In . SVG Version: 6.00 Build 0)  -->
<svg version="1.1" id="Layer_1" xmlns="http://www.w3.org/2000/svg" xmlns:xlink="http://www.w3.org/1999/xlink" x="0px" y="0px"
	 viewBox="0 0 180.2 134.4" style="enable-background:new 0 0 180.2 134.4;" xml:space="preserve">
<style type="text/css">
	.st0{fill:#F9EFDC;}
	.st1{fill:#545454;}
	.st2{fill:none;}
	.st3{font-family:'Avenir-Light';}
	.st4{font-size:9px;}
</style>
<rect x="0" class="st0" width="180.2" height="134.4"/>
<g>
	<g id="XMLID_1_">
		<g>
			<path class="st1" d="M78.1,64.5c1.3,0.5,2.3-0.2,3.2-1c2.2-1.9,3.3-4.5,3.7-7.3c0.2-1.4-0.4-2.4-1.3-3.4
				c-0.3-0.4-1.7-2.3-2.6-2.3c-0.9,0-2.6,2.2-3.7,3.4c-1.8,2.1-2.2,4.8-2,7.5C75.5,63,76.6,63.9,78.1,64.5z M66.3,32.6
				c-0.1-1.2-0.4-2.3-1.7-3.2c-0.5,0.2-0.8,0.4-1.2,0.6c-2.9,1.6-4.4,4.6-6.1,7.2c-2.5,3.6-2.7,7.8-2.9,11.9c-0.1,2.2,0,4.5,0.9,6.6
				s1.8,4.5,3.6,6.2c0.2-0.2,0.2-0.3,0.2-0.4c2.2-7.6,4.5-15.2,6.6-22.9C66.2,36.7,66.4,34.6,66.3,32.6z M114.4,42.8
				c1.3-1.6,0.7-4.7,0-4.7c-0.5-0.2-1.7,0.4-2.6,1.2c-0.5,0.5-0.7,0.7-0.9,1.2c-0.6,1.9-1.1,3.7-0.2,6
				C112.2,45,113.4,44.1,114.4,42.8z M88.5,51.6c2.7-1.3,5.1-3,6.8-5.5c1.3-1.8,2.5-3.6,3.4-5.9c1.2,1,0.8,1.8,0.3,2.5
				c-0.9,1.5-1.6,3.1-1.6,4.9c-0.1,3.1,1.4,4.5,4.5,3.8c2.7-0.5,5.2-1.8,7.4-3.5c-0.1-2-0.4-4.2,0.1-6.3c0.5-2.2,1.9-3.6,3.8-4.6
				c1.7-0.9,3-0.2,3.3,1.7c0.3,1.7,0,3.2-1.1,4.5c-1.2,1.4-2.5,2.9-3.7,4.3c0.4,1.5,1.6,1.7,2.6,1.9c2.8,0.7,5.6,0.6,8.3,0.1
				c4.3-0.7,8.5-1.6,12.5-3.2c3.9-1.6,7.3-4,10.5-6.6c2.3-2,4.9-3.8,6.7-6.5c0.9,0.8,0.5,1.5-0.1,2.1c-1,1-2,2.1-3.1,3
				c-2.6,2.1-5.1,4.4-7.9,6.3c-4.4,3-9.2,4.6-14.4,5.6c-2.8,0.5-5.6,1-8.5,1c-3,0-5.7-0.4-8.1-2.3c-1.7,0.9-3,2.2-4.8,2.8
				c-1.3,0.4-2.6,0.8-3.9,1.1c-3,0.6-6.2-1.3-5.1-5.3c0.1-0.3,0.2-0.6,0.2-1c-4.6,5.2-5.3,5.1-10.8,7.4c0.3,1.1,0.3,2.3,0.1,3.5
				c-0.5,3.5-2.1,6-4.7,8c-2.5,1.9-6.5-0.2-7.1-3.5c-0.2-1.5,0.1-2.8,0.4-4.2c0.6-1.8-0.8,0-1.1,0.2c-4.8,3.9-9.6,7.9-14.4,11.8
				c-0.7,0.5-1,1.2-1.2,2c-0.7,2.3-1.1,4.7-1.4,7.1c-0.6,5.2-1.4,8.1-2.3,12.3c-1.1,4.8-2.5,9.6-4.7,14.1c-1.1,2.3-2.6,4.4-4.9,5.8
				c-4.4,2.7-9,0.1-9.6-5.1c-0.3-2-0.4-3.9,0-5.9c1.2-6.2,3.5-11.8,7.3-16.4c4.5-5.5,7-7.7,9.8-9.9c0.9-0.7,1.7-1.6,2.7-2.3
				c1.8-1.3,2.7-2.6,3.3-4.6c0.2-0.6,0.3-1,0.4-1.6c0.2-1,0.2-1.9-0.5-2.7c-0.7-0.9-1.4-1.8-2-2.7c-1.7-2.7-2.3-5.7-2.6-8.9
				c-0.3-4.4,0.5-8.6,2.2-12.6c1.4-3.3,3.5-6.3,6.3-8.6c2.9-2.4,5.1-1.6,5.6,2.1c0.4,2.6-0.1,5.1-0.8,7.6
				c-1.6,5.9-3.2,11.7-5.1,17.5c-0.6,1.7-0.8,3.6-1.3,5.3c-0.4,1.2-0.3,0.8-0.6,2.2c-0.2,1.1-0.3,1.1-0.6,2.3
				c-0.1,0.2-0.1,0.6-0.4,1.8c4.9-4.1,14.9-12.2,16.8-14.2c2.7-2.9,5.3-5.1,5.6-5.2c0.8-0.1,1.7,0.7,2.2,1.3
				C84.9,52.3,86.1,52.7,88.5,51.6z M48.4,78.4c-1.7,1.5-2.9,3.1-4.5,4.8c-1.6,1.8-2.2,2.6-3.4,4.8c-2.3,4.3-4.2,8.4-4.9,13.1
				c-0.3,1.7-0.1,3.3,0.1,5.1c0.5,3.2,4.5,6.2,8.1,3.8c2-1.4,3.5-3.2,4.5-5.5c1.9-4.4,3.4-9,4.6-13.6c0.7-2.8,1.7-7.8,2.1-11.2
				c0.3-2.6,0.7-4.9,1.4-7.9C52.6,74,51.2,76,48.4,78.4z"/>
			<path class="st0" d="M35.7,106.2c-0.3-1.8-0.4-3.4-0.1-5.1c0.7-4.7,2.7-8.8,4.9-13.1c1.2-2.2,1.8-3,3.4-4.8
				c1.5-1.7,2.8-3.3,4.5-4.8c2.8-2.4,4.2-4.4,8-6.6c-0.8,3-1.1,5.3-1.4,7.9c-0.5,3.4-1.4,8.4-2.1,11.2c-1.2,4.6-2.7,9.2-4.6,13.6
				c-1,2.2-2.4,4-4.5,5.5C40.2,112.5,36.2,109.4,35.7,106.2z"/>
			<path class="st0" d="M114.4,38.1c0.7,0,1.3,3.1,0,4.7c-1,1.3-2.3,2.2-3.6,3.8c-0.9-2.4-0.5-4.2,0.2-6c0.2-0.6,0.4-0.7,0.9-1.2
				C112.7,38.5,114,38,114.4,38.1z"/>
			<path class="st1" d="M99.9,32.8c1.7-3,2-3.2,3.7-3.3C102.6,31.1,101.6,32.4,99.9,32.8z"/>
			<path class="st1" d="M-336.4,132.7c-0.3,0-0.5-0.2-0.5-0.4c0-0.3,0.2-0.4,0.5-0.4c0.3,0,0.4,0.2,0.5,0.4
				C-336,132.5-336.2,132.7-336.4,132.7z"/>
			<path class="st0" d="M66.3,32.6c0.1,2-0.1,4-0.6,5.9c-2.1,7.6-4.4,15.3-6.6,22.9c0,0.1,0,0.2-0.2,0.4c-1.7-1.7-2.8-4.1-3.6-6.2
				s-1-4.4-0.9-6.6c0.2-4.1,0.4-8.3,2.9-11.9c1.8-2.6,3.2-5.5,6.1-7.2c0.3-0.2,0.7-0.3,1.2-0.6C65.9,30.3,66.2,31.4,66.3,32.6z"/>
			<path class="st0" d="M77.4,53.9c1-1.2,2.8-3.4,3.7-3.4c0.9,0,2.2,1.9,2.6,2.3c0.8,1,1.5,2,1.3,3.4c-0.4,2.8-1.5,5.4-3.7,7.3
				c-0.9,0.8-1.9,1.5-3.2,1c-1.4-0.6-2.5-1.5-2.6-3.1C75.3,58.7,75.6,56,77.4,53.9z"/>
			<path class="st1" d="M-95.9-80.1c0,0.2-0.2,0.2-0.3,0.1c-0.1-0.1-0.2-0.2-0.2-0.3c0-0.2,0.2-0.3,0.3-0.2
				C-96.1-80.4-95.9-80.2-95.9-80.1z"/>
		</g>
		<g>
		</g>
	</g>
</g>
<rect x="92.6" y="70.9" class="st2" width="124.5" height="23.3"/>
<text transform="matrix(1 0 0 1 92.5785 77.7276)" class="st1 st3 st4">Originals</text>
<rect x="133.5" y="90.8" class="st2" width="4.3" height="0"/>
<line class="st2" x1="149.6" y1="34.8" x2="150.1" y2="119.5"/>
</svg>
